[h264 @ 0x565062868180] Reinit context to 640x352, pix_fmt: yuv420p
Input #0, mov,mp4,m4a,3gp,3g2,mj2, from '/var/www/html/project/media/video/original/VID-20220128-WA0053.mp4':
  Metadata:
    major_brand     : mp42
    minor_version   : 0
    compatible_brands: mp42isom
  Duration: 00:00:09.17, start: 0.000000, bitrate: 2125 kb/s
    Stream #0:0(und): Video: h264 (Baseline), 1 reference frame (avc1 / 0x31637661), yuv420p(tv, bt470bg/bt470bg/smpte170m, left), 640x352, 1997 kb/s, 29.60 fps, 29.58 tbr, 90k tbn, 180k tbc (default)
    Stream #0:1(und): Audio: aac (LC) (mp4a / 0x6134706D), 48000 Hz, stereo, fltp, 128 kb/s (default)
Input #1, png_pipe, from '/var/www/html/project/static/images/templates/logo.png':
  Duration: N/A, bitrate: N/A
    Stream #1:0: Video: png, 1 reference frame, rgba(pc), 1920x1080 [SAR 2835:2835 DAR 16:9], 25 tbr, 25 tbn, 25 tbc
[h264 @ 0x56506289cd40] Reinit context to 1280x720, pix_fmt: yuv420p
Input #2, mov,mp4,m4a,3gp,3g2,mj2, from '/var/www/html/project/static/images/templates/Codino.mp4':
  Metadata:
    major_brand     : mp42
    minor_version   : 1
    compatible_brands: isommp41mp42
    creation_time   : 2021-07-11T07:02:58.000000Z
  Duration: 00:00:02.00, start: 0.000000, bitrate: 1007 kb/s
    Stream #2:0(ita): Audio: aac (LC) (mp4a / 0x6134706D), 44100 Hz, stereo, fltp, 102 kb/s (default)
    Metadata:
      creation_time   : 2021-07-11T07:02:58.000000Z
      handler_name    : Core Media Audio
    Stream #2:1(und): Video: h264 (High), 1 reference frame (avc1 / 0x31637661), yuv420p(tv, bt709, progressive, left), 1280x720 [SAR 1:1 DAR 16:9], 813 kb/s, 25 fps, 25 tbr, 25k tbn, 50k tbc (default)
    Metadata:
      creation_time   : 2021-07-11T07:02:58.000000Z
      handler_name    : Core Media Video
[Parsed_scale_0 @ 0x565062945100] w:1280 h:720 flags:'bilinear' interl:0
[Parsed_scale_2 @ 0x5650629094c0] w:1280 h:720 flags:'bilinear' interl:0
[Parsed_scale_4 @ 0x565062898ac0] w:1280 h:720 flags:'bilinear' interl:0
Stream mapping:
  Stream #0:0 (h264) -> scale
  Stream #0:1 (aac) -> concat:in0:a0
  Stream #1:0 (png) -> scale
  Stream #2:0 (aac) -> concat:in1:a0
  Stream #2:1 (h264) -> scale
  concat:out:v0 -> Stream #0:0 (libx264)
  concat:out:a0 -> Stream #0:1 (aac)
Press [q] to stop, [?] for help
[h264 @ 0x5650628c6c40] Reinit context to 640x352, pix_fmt: yuv420p
[h264 @ 0x565062d17140] Reinit context to 1280x720, pix_fmt: yuv420p
[Parsed_scale_0 @ 0x565063748f40] w:1280 h:720 flags:'bilinear' interl:0
[Parsed_scale_2 @ 0x565063749600] w:1280 h:720 flags:'bilinear' interl:0
[Parsed_scale_4 @ 0x565063752b80] w:1280 h:720 flags:'bilinear' interl:0
[graph 0 input from stream 0:0 @ 0x565063757300] w:640 h:352 pixfmt:yuv420p tb:1/90000 fr:355/12 sar:0/1 sws_param:flags=2
[graph 0 input from stream 1:0 @ 0x5650637582c0] w:1920 h:1080 pixfmt:rgba tb:1/25 fr:25/1 sar:2835/2835 sws_param:flags=2
[graph 0 input from stream 2:1 @ 0x565063759340] w:1280 h:720 pixfmt:yuv420p tb:1/25000 fr:25/1 sar:1/1 sws_param:flags=2
[graph_0_in_0_1 @ 0x56506375a300] tb:1/48000 samplefmt:fltp samplerate:48000 chlayout:0x3
[graph_0_in_2_0 @ 0x56506375b440] tb:1/44100 samplefmt:fltp samplerate:44100 chlayout:0x3
[Parsed_concat_7 @ 0x565063755340] auto-inserting filter 'auto_resampler_0' between the filter 'graph_0_in_2_0' and the filter 'Parsed_concat_7'
[Parsed_scale_0 @ 0x565063748f40] w:640 h:352 fmt:yuv420p sar:0/1 -> w:1280 h:720 fmt:yuv420p sar:0/1 flags:0x2
[Parsed_setsar_1 @ 0x5650637493c0] w:1280 h:720 sar:0/1 dar:16/9 -> sar:1/1 dar:16/9
[Parsed_scale_2 @ 0x565063749600] w:1920 h:1080 fmt:rgba sar:2835/2835 -> w:1280 h:720 fmt:yuva420p sar:1/1 flags:0x2
[Parsed_setsar_3 @ 0x5650628e5dc0] w:1280 h:720 sar:1/1 dar:16/9 -> sar:1/1 dar:16/9
[Parsed_overlay_6 @ 0x565063754200] main w:1280 h:720 fmt:yuv420p overlay w:1280 h:720 fmt:yuva420p
[Parsed_overlay_6 @ 0x565063754200] [framesync @ 0x565063754368] Selected 1/90000 time base
[Parsed_overlay_6 @ 0x565063754200] [framesync @ 0x565063754368] Sync level 2
[Parsed_scale_4 @ 0x565063752b80] w:1280 h:720 fmt:yuv420p sar:1/1 -> w:1280 h:720 fmt:yuv420p sar:1/1 flags:0x2
[Parsed_setsar_5 @ 0x565063753680] w:1280 h:720 sar:1/1 dar:16/9 -> sar:1/1 dar:16/9
[auto_resampler_0 @ 0x565063763180] ch:2 chl:stereo fmt:fltp r:44100Hz -> ch:2 chl:stereo fmt:fltp r:48000Hz
[libx264 @ 0x565062927f00] using SAR=1/1
[libx264 @ 0x565062927f00] using cpu capabilities: MMX2 SSE2Fast SSSE3 SSE4.2 AVX FMA3 BMI2 AVX2
[libx264 @ 0x565062927f00] profile High, level 3.1
[libx264 @ 0x565062927f00] 264 - core 155 r2917 0a84d98 - H.264/MPEG-4 AVC codec - Copyleft 2003-2018 - http://www.videolan.org/x264.html - options: cabac=1 ref=1 deblock=1:0:0 analyse=0x3:0x113 me=hex subme=2 psy=1 psy_rd=1.00:0.00 mixed_ref=0 me_range=16 chroma_me=1 trellis=0 8x8dct=1 cqm=0 deadzone=21,11 fast_pskip=1 chroma_qp_offset=0 threads=22 lookahead_threads=5 sliced_threads=0 nr=0 decimate=1 interlaced=0 bluray_compat=0 constrained_intra=0 bframes=3 b_pyramid=2 b_adapt=1 b_bias=0 direct=1 weightb=1 open_gop=0 weightp=1 keyint=250 keyint_min=25 scenecut=40 intra_refresh=0 rc_lookahead=10 rc=crf mbtree=1 crf=18.0 qcomp=0.60 qpmin=0 qpmax=69 qpstep=4 ip_ratio=1.40 aq=1:1.00
Output #0, mp4, to '/var/www/html/project/media/video/watermarks/VID-20220128-WA0053.mp4':
  Metadata:
    major_brand     : mp42
    minor_version   : 0
    compatible_brands: mp42isom
    encoder         : Lavf58.29.100
    Stream #0:0: Video: h264 (libx264), 1 reference frame (avc1 / 0x31637661), yuv420p(progressive), 1280x720 [SAR 1:1 DAR 16:9], q=-1--1, 29.58 fps, 11360 tbn, 29.58 tbc (default)
    Metadata:
      encoder         : Lavc58.54.100 libx264
    Side data:
      cpb: bitrate max/min/avg: 0/0/0 buffer size: 0 vbv_delay: -1
    Stream #0:1: Audio: aac (LC) (mp4a / 0x6134706D), 48000 Hz, stereo, fltp, delay 1024, 128 kb/s (default)
    Metadata:
      encoder         : Lavc58.54.100 aac
[Parsed_overlay_6 @ 0x565063754200] [framesync @ 0x565063754368] Sync level 0
[Parsed_concat_7 @ 0x565063755340] EOF on in0:v0, 1 streams left in segment.
[Parsed_concat_7 @ 0x565063755340] EOF on in0:a0, 0 streams left in segment.
[Parsed_concat_7 @ 0x565063755340] Segment finished at pts=9173333
[Parsed_concat_7 @ 0x565063755340] EOF on in1:v0, 1 streams left in segment.
[Parsed_concat_7 @ 0x565063755340] EOF on in1:a0, 0 streams left in segment.
[Parsed_concat_7 @ 0x565063755340] Segment finished at pts=11192020
No more output streams to write to, finishing.
frame=  321 fps=192 q=-1.0 Lsize=    4620kB time=00:00:11.20 bitrate=3379.3kbits/s speed=6.69x    
[AVIOContext @ 0x565062866440] Statistics: 0 seeks, 4 writeouts
video:4439kB audio:168kB subtitle:0kB other streams:0kB global headers:0kB muxing overhead: 0.271378%
Input file #0 (/var/www/html/project/media/video/original/VID-20220128-WA0053.mp4):
  Input stream #0:0 (video): 271 packets read (2286040 bytes); 271 frames decoded; 
  Input stream #0:1 (audio): 430 packets read (147112 bytes); 430 frames decoded (440320 samples); 
  Total: 701 packets (2433152 bytes) demuxed
Input file #1 (/var/www/html/project/static/images/templates/logo.png):
  Input stream #1:0 (video): 1 packets read (111578 bytes); 1 frames decoded; 
  Total: 1 packets (111578 bytes) demuxed
Input file #2 (/var/www/html/project/static/images/templates/Codino.mp4):
  Input stream #2:0 (audio): 89 packets read (26579 bytes); 87 frames decoded (89024 samples); 
  Input stream #2:1 (video): 50 packets read (203365 bytes); 50 frames decoded; 
  Total: 139 packets (229944 bytes) demuxed
Output file #0 (/var/www/html/project/media/video/watermarks/VID-20220128-WA0053.mp4):
  Output stream #0:0 (video): 321 frames encoded; 321 packets muxed (4545642 bytes); 
  Output stream #0:1 (audio): 525 frames encoded (537217 samples); 526 packets muxed (172508 bytes); 
  Total: 847 packets (4718150 bytes) muxed
[AVIOContext @ 0x5650628994c0] Statistics: 2 seeks, 21 writeouts
[libx264 @ 0x565062927f00] frame I:2     Avg QP:17.16  size: 63657
[libx264 @ 0x565062927f00] frame P:144   Avg QP:17.48  size: 20491
[libx264 @ 0x565062927f00] frame B:175   Avg QP:19.55  size:  8382
[libx264 @ 0x565062927f00] consecutive B-frames: 23.1%  8.1% 14.0% 54.8%
[libx264 @ 0x565062927f00] mb I  I16..4: 12.1% 43.8% 44.1%
[libx264 @ 0x565062927f00] mb P  I16..4:  7.6% 17.6%  2.0%  P16..4: 28.7% 14.3%  7.5%  0.0%  0.0%    skip:22.3%
[libx264 @ 0x565062927f00] mb B  I16..4:  2.7%  3.8%  0.2%  B16..8: 25.9%  8.1%  0.7%  direct:21.1%  skip:37.4%  L0:47.2% L1:39.7% BI:13.1%
[libx264 @ 0x565062927f00] 8x8 transform intra:62.2% inter:45.3%
[libx264 @ 0x565062927f00] coded y,uvDC,uvAC intra: 54.1% 61.1% 14.6% inter: 14.0% 42.9% 1.5%
[libx264 @ 0x565062927f00] i16 v,h,dc,p: 57% 22% 13%  8%
[libx264 @ 0x565062927f00] i8 v,h,dc,ddl,ddr,vr,hd,vl,hu: 47% 24% 13%  2%  2%  2%  3%  2%  3%
[libx264 @ 0x565062927f00] i4 v,h,dc,ddl,ddr,vr,hd,vl,hu: 36% 28% 10%  4%  5%  4%  6%  4%  5%
[libx264 @ 0x565062927f00] i8c dc,h,v,p: 43% 24% 25%  8%
[libx264 @ 0x565062927f00] Weighted P-Frames: Y:4.9% UV:0.0%
[libx264 @ 0x565062927f00] kb/s:3259.51
[aac @ 0x5650628a3680] Qavg: 4403.613
[AVIOContext @ 0x56506286f3c0] Statistics: 2437502 bytes read, 0 seeks
[AVIOContext @ 0x5650628ea800] Statistics: 111578 bytes read, 0 seeks
[AVIOContext @ 0x565062965400] Statistics: 1530915 bytes read, 42 seeks
